# xmcd
# 
# Track frame offsets:
#     150
#     10170
#     19552
#     29970
#     41302
#     56905
#     65910
#     76562
#     87317
#     100225
#     110227
#     123600
#     134987
#     145082
#     153865
#     164467
#     174730
#     184562
#     194775
#     203457
#     213367
#     224532
#     233025
#     242425
#     252555
#     262527
# 
# Disc length: 3651
# 
# Revision: 1
# Processed by: cddbd v1.5.2PL0 Copyright (c) Steve Scherf et al.
# Submitted via: fre:ac v1.0.31
# 
DISCID=7a0e411a
DTITLE=Narvel Felts - Memphis Days
DYEAR=1990
DGENRE=
TTITLE0=Night Creature
TTITLE1=Your True Love
TTITLE2=Blue Darlin´
TTITLE3=What You´re Doing To Me
TTITLE4=Sad And Blue
TTITLE5=She´s In Your Heart To Stay
TTITLE6=Return
TTITLE7=Welcome Home, Mister Blues
TTITLE8=Love Is Gone
TTITLE9=Tear Down The Wall
TTITLE10=The Four Seasons Of Love
TTITLE11=Come What May
TTITLE12=Lola Did A Dance
TTITLE13=Lovelight Man
TTITLE14=Mr. Pawnshop Broker
TTITLE15=Tongue Tied Jill
TTITLE16=All That Heaven Sent
TTITLE17=I Had A Girl (What´s Wrong With Me)
TTITLE18=Slippin´ And Slidin´
TTITLE19=Larry And Joellen
TTITLE20=You Were Mine
TTITLE21=Get On The Right Track, Baby
TTITLE22=Sweet, Sweet Loving
TTITLE23=Mountain Of Love
TTITLE24=Private Detective
TTITLE25=One Man At A Table
EXTD=Bear Family Records
EXTT0=
EXTT1=
EXTT2=
EXTT3=
EXTT4=
EXTT5=
EXTT6=
EXTT7=
EXTT8=
EXTT9=
EXTT10=
EXTT11=
EXTT12=
EXTT13=
EXTT14=
EXTT15=
EXTT16=
EXTT17=
EXTT18=
EXTT19=
EXTT20=
EXTT21=
EXTT22=
EXTT23=
EXTT24=
EXTT25=
PLAYORDER=
